<svg xmlns="http://www.w3.org/2000/svg" xmlns:xlink="http://www.w3.org/1999/xlink" width="1200" zoomAndPan="magnify" viewBox="0 0 900 472.499986" height="630" preserveAspectRatio="xMidYMid meet" version="1.0"><defs><g/><clipPath id="909516eec9"><path d="M 0.476562 0 L 899.523438 0 L 899.523438 472 L 0.476562 472 Z M 0.476562 0 " clip-rule="nonzero"/></clipPath><clipPath id="c06f9416a2"><path d="M 0.28125 141 L 757.640625 141 L 757.640625 285.128906 L 0.28125 285.128906 Z M 0.28125 141 " clip-rule="nonzero"/></clipPath><clipPath id="cccc392dca"><rect x="0" width="758" y="0" height="145"/></clipPath><clipPath id="e70385ed31"><rect x="0" width="758" y="0" height="286"/></clipPath></defs><g clip-path="url(#909516eec9)"><path fill="#ffffff" d="M 0.476562 0 L 899.523438 0 L 899.523438 472 L 0.476562 472 Z M 0.476562 0 " fill-opacity="1" fill-rule="nonzero"/><path fill="#ffffff" d="M 0.476562 0 L 899.523438 0 L 899.523438 472 L 0.476562 472 Z M 0.476562 0 " fill-opacity="1" fill-rule="nonzero"/></g><g transform="matrix(1, 0, 0, 1, 69, 86)"><g clip-path="url(#e70385ed31)"><path fill="#39b54a" d="M 239.5625 161.605469 C 233.105469 146.828125 223.507812 118.058594 232.933594 87.339844 C 248.402344 36.941406 309.082031 0.804688 382.109375 5.484375 C 391.808594 66.972656 367.910156 124.574219 322.882812 150.273438 C 292.550781 167.585938 261.128906 165.566406 246.246094 163.503906 C 261.484375 152.027344 278.585938 137.28125 295.683594 118.609375 C 322.074219 89.796875 339.6875 61.203125 351.347656 38.390625 C 334.597656 61.605469 314.472656 86.6875 290.425781 112.316406 C 273.074219 130.808594 255.9375 147.179688 239.5625 161.605469 Z M 239.5625 161.605469 " fill-opacity="1" fill-rule="nonzero"/><path fill="#39b54a" d="M 220.09375 163.210938 C 208.699219 166.632812 186.765625 171.140625 165.023438 161.691406 C 129.347656 146.183594 107.996094 99.109375 117.65625 46.566406 C 163.609375 44.773438 203.851562 67.007812 218.878906 101.84375 C 229 125.308594 224.839844 147.914062 222.058594 158.527344 C 214.929688 146.503906 205.566406 132.847656 193.320312 118.863281 C 174.421875 97.277344 154.9375 82.066406 139.183594 71.671875 C 154.796875 85.792969 171.492188 102.519531 188.253906 122.136719 C 200.347656 136.292969 210.902344 150.113281 220.09375 163.210938 Z M 220.09375 163.210938 " fill-opacity="1" fill-rule="nonzero"/><g clip-path="url(#c06f9416a2)"><g transform="matrix(1, 0, 0, 1, -0.000000000000014211, 141)"><g clip-path="url(#cccc392dca)"><g fill="#3d3d3d" fill-opacity="1"><g transform="translate(1.962736, 107.765853)"><g><path d="M 54.046875 3.265625 C 44.304688 3.265625 35.675781 0.992188 28.15625 -3.546875 C 20.632812 -8.085938 14.769531 -14.398438 10.5625 -22.484375 C 6.351562 -30.566406 4.25 -39.90625 4.25 -50.5 C 4.25 -61.1875 6.492188 -70.597656 10.984375 -78.734375 C 15.484375 -86.867188 21.726562 -93.203125 29.71875 -97.734375 C 37.707031 -102.273438 46.953125 -104.546875 57.453125 -104.546875 C 64.921875 -104.546875 71.773438 -103.148438 78.015625 -100.359375 C 84.265625 -97.578125 89.585938 -93.703125 93.984375 -88.734375 C 98.378906 -83.765625 101.425781 -78.019531 103.125 -71.5 L 80.859375 -66.8125 C 79.253906 -71.820312 76.273438 -75.910156 71.921875 -79.078125 C 67.566406 -82.253906 62.648438 -83.84375 57.171875 -83.84375 C 51.585938 -83.84375 46.617188 -82.421875 42.265625 -79.578125 C 37.921875 -76.742188 34.539062 -72.84375 32.125 -67.875 C 29.71875 -62.914062 28.515625 -57.125 28.515625 -50.5 C 28.515625 -43.882812 29.882812 -38.019531 32.625 -32.90625 C 35.363281 -27.800781 39.144531 -23.804688 43.96875 -20.921875 C 48.800781 -18.035156 54.335938 -16.59375 60.578125 -16.59375 C 65.960938 -16.59375 70.78125 -17.703125 75.03125 -19.921875 C 79.289062 -22.148438 82.722656 -25.203125 85.328125 -29.078125 C 87.929688 -32.953125 89.328125 -37.351562 89.515625 -42.28125 L 46.109375 -42.28125 L 46.109375 -57.3125 L 113.203125 -57.3125 L 113.203125 0 L 95.46875 0 L 93.0625 -19.15625 L 92.921875 -19.15625 C 89.703125 -12.15625 84.640625 -6.664062 77.734375 -2.6875 C 70.835938 1.28125 62.941406 3.265625 54.046875 3.265625 Z M 54.046875 3.265625 "/></g></g></g><g fill="#3d3d3d" fill-opacity="1"><g transform="translate(117.707824, 107.765853)"><g><path d="M 46.8125 -74.90625 C 53.144531 -74.90625 58.34375 -72.703125 62.40625 -68.296875 C 66.476562 -63.898438 68.941406 -57.640625 69.796875 -49.515625 L 51.5 -44.546875 C 51.113281 -48.992188 49.953125 -52.445312 48.015625 -54.90625 C 46.078125 -57.363281 43.550781 -58.59375 40.4375 -58.59375 C 36.363281 -58.59375 33.164062 -56.910156 30.84375 -53.546875 C 28.53125 -50.191406 27.375 -45.535156 27.375 -39.578125 L 27.375 0 L 5.671875 0 L 5.671875 -72.625 L 22.984375 -72.625 L 26.25 -60.859375 L 26.390625 -60.859375 C 28.367188 -65.304688 31.15625 -68.757812 34.75 -71.21875 C 38.34375 -73.675781 42.363281 -74.90625 46.8125 -74.90625 Z M 46.8125 -74.90625 "/></g></g></g><g fill="#3d3d3d" fill-opacity="1"><g transform="translate(186.502099, 107.765853)"><g><path d="M 46.671875 2.84375 C 38.160156 2.84375 30.640625 1.164062 24.109375 -2.1875 C 17.585938 -5.550781 12.484375 -10.210938 8.796875 -16.171875 C 5.109375 -22.128906 3.265625 -28.984375 3.265625 -36.734375 C 3.265625 -44.398438 4.894531 -51.140625 8.15625 -56.953125 C 11.414062 -62.773438 16 -67.316406 21.90625 -70.578125 C 27.820312 -73.835938 34.660156 -75.46875 42.421875 -75.46875 C 49.984375 -75.46875 56.578125 -73.90625 62.203125 -70.78125 C 67.828125 -67.664062 72.222656 -63.34375 75.390625 -57.8125 C 78.566406 -52.28125 80.15625 -45.867188 80.15625 -38.578125 C 80.15625 -37.160156 80.054688 -35.71875 79.859375 -34.25 C 79.671875 -32.789062 79.4375 -31.492188 79.15625 -30.359375 L 25.53125 -30.359375 C 26.195312 -25.160156 28.535156 -20.972656 32.546875 -17.796875 C 36.566406 -14.628906 41.554688 -13.046875 47.515625 -13.046875 C 52.054688 -13.046875 56.3125 -13.96875 60.28125 -15.8125 C 64.257812 -17.65625 67.289062 -20.046875 69.375 -22.984375 L 81.71875 -13.484375 C 78.78125 -8.648438 74.164062 -4.71875 67.875 -1.6875 C 61.59375 1.332031 54.523438 2.84375 46.671875 2.84375 Z M 25.390625 -42.84375 L 58.15625 -42.84375 C 57.78125 -48.226562 56.171875 -52.429688 53.328125 -55.453125 C 50.492188 -58.484375 46.859375 -60 42.421875 -60 C 37.878906 -60 34.070312 -58.414062 31 -55.25 C 27.925781 -52.082031 26.054688 -47.945312 25.390625 -42.84375 Z M 25.390625 -42.84375 "/></g></g></g><g fill="#3d3d3d" fill-opacity="1"><g transform="translate(267.778771, 107.765853)"><g><path d="M 46.671875 2.84375 C 38.160156 2.84375 30.640625 1.164062 24.109375 -2.1875 C 17.585938 -5.550781 12.484375 -10.210938 8.796875 -16.171875 C 5.109375 -22.128906 3.265625 -28.984375 3.265625 -36.734375 C 3.265625 -44.398438 4.894531 -51.140625 8.15625 -56.953125 C 11.414062 -62.773438 16 -67.316406 21.90625 -70.578125 C 27.820312 -73.835938 34.660156 -75.46875 42.421875 -75.46875 C 49.984375 -75.46875 56.578125 -73.90625 62.203125 -70.78125 C 67.828125 -67.664062 72.222656 -63.34375 75.390625 -57.8125 C 78.566406 -52.28125 80.15625 -45.867188 80.15625 -38.578125 C 80.15625 -37.160156 80.054688 -35.71875 79.859375 -34.25 C 79.671875 -32.789062 79.4375 -31.492188 79.15625 -30.359375 L 25.53125 -30.359375 C 26.195312 -25.160156 28.535156 -20.972656 32.546875 -17.796875 C 36.566406 -14.628906 41.554688 -13.046875 47.515625 -13.046875 C 52.054688 -13.046875 56.3125 -13.96875 60.28125 -15.8125 C 64.257812 -17.65625 67.289062 -20.046875 69.375 -22.984375 L 81.71875 -13.484375 C 78.78125 -8.648438 74.164062 -4.71875 67.875 -1.6875 C 61.59375 1.332031 54.523438 2.84375 46.671875 2.84375 Z M 25.390625 -42.84375 L 58.15625 -42.84375 C 57.78125 -48.226562 56.171875 -52.429688 53.328125 -55.453125 C 50.492188 -58.484375 46.859375 -60 42.421875 -60 C 37.878906 -60 34.070312 -58.414062 31 -55.25 C 27.925781 -52.082031 26.054688 -47.945312 25.390625 -42.84375 Z M 25.390625 -42.84375 "/></g></g></g><g fill="#3d3d3d" fill-opacity="1"><g transform="translate(349.055444, 107.765853)"><g><path d="M 53.203125 -74.765625 C 60.671875 -74.765625 66.53125 -72.585938 70.78125 -68.234375 C 75.039062 -63.878906 77.171875 -57.828125 77.171875 -50.078125 L 77.171875 0 L 55.46875 0 L 55.46875 -43.40625 C 55.46875 -47.570312 54.378906 -50.835938 52.203125 -53.203125 C 50.023438 -55.566406 47.046875 -56.75 43.265625 -56.75 C 38.628906 -56.75 34.820312 -55.234375 31.84375 -52.203125 C 28.863281 -49.179688 27.375 -45.160156 27.375 -40.140625 L 27.375 0 L 5.671875 0 L 5.671875 -72.625 L 23.96875 -72.625 L 27.234375 -59.4375 L 27.375 -59.4375 C 30.019531 -64.351562 33.539062 -68.132812 37.9375 -70.78125 C 42.34375 -73.4375 47.429688 -74.765625 53.203125 -74.765625 Z M 53.203125 -74.765625 "/></g></g></g><g fill="#3d3d3d" fill-opacity="1"><g transform="translate(428.346302, 107.765853)"><g><path d="M 28.09375 2.125 C 20.519531 2.125 14.296875 0.234375 9.421875 -3.546875 C 4.554688 -7.328125 2.125 -12.335938 2.125 -18.578125 C 2.125 -24.828125 4.816406 -30.078125 10.203125 -34.328125 C 15.597656 -38.585938 23.734375 -41.285156 34.609375 -42.421875 L 48.65625 -44.125 C 50.363281 -44.3125 51.734375 -44.851562 52.765625 -45.75 C 53.804688 -46.644531 54.328125 -47.847656 54.328125 -49.359375 C 54.328125 -52.484375 53.097656 -54.988281 50.640625 -56.875 C 48.179688 -58.769531 45.015625 -59.71875 41.140625 -59.71875 C 36.785156 -59.71875 33.191406 -58.367188 30.359375 -55.671875 C 27.523438 -52.984375 25.914062 -49.84375 25.53125 -46.25 L 4.390625 -49.515625 C 4.867188 -54.523438 6.644531 -58.988281 9.71875 -62.90625 C 12.789062 -66.832031 16.972656 -69.90625 22.265625 -72.125 C 27.566406 -74.351562 33.671875 -75.46875 40.578125 -75.46875 C 51.265625 -75.46875 59.773438 -72.84375 66.109375 -67.59375 C 72.441406 -62.34375 75.609375 -55.179688 75.609375 -46.109375 L 75.609375 -18.015625 C 75.609375 -14.515625 76.835938 -12.765625 79.296875 -12.765625 C 81.378906 -12.765625 83.269531 -13.851562 84.96875 -16.03125 L 90.078125 -4.546875 C 87.898438 -2.367188 85.085938 -0.710938 81.640625 0.421875 C 78.191406 1.554688 74.8125 2.125 71.5 2.125 C 67.144531 2.125 63.40625 0.941406 60.28125 -1.421875 C 57.164062 -3.785156 55.375 -6.625 54.90625 -9.9375 L 54.609375 -12.484375 L 54.46875 -12.484375 C 52.101562 -8.128906 48.648438 -4.601562 44.109375 -1.90625 C 39.578125 0.78125 34.238281 2.125 28.09375 2.125 Z M 36.3125 -12.765625 C 41.414062 -12.765625 45.625 -14.347656 48.9375 -17.515625 C 52.25 -20.679688 53.90625 -24.726562 53.90625 -29.65625 L 53.90625 -32.625 L 40 -31.0625 C 33.945312 -30.40625 29.738281 -29.175781 27.375 -27.375 C 25.007812 -25.582031 23.828125 -23.503906 23.828125 -21.140625 C 23.828125 -18.679688 25.007812 -16.671875 27.375 -15.109375 C 29.738281 -13.546875 32.71875 -12.765625 36.3125 -12.765625 Z M 36.3125 -12.765625 "/></g></g></g><g fill="#3d3d3d" fill-opacity="1"><g transform="translate(515.296782, 107.765853)"><g><path d="M 5.671875 0 L 5.671875 -72.625 L 23.125 -72.625 L 26.390625 -59.4375 L 26.53125 -59.4375 C 28.507812 -64.257812 31.742188 -68.019531 36.234375 -70.71875 C 40.734375 -73.414062 45.773438 -74.765625 51.359375 -74.765625 C 62.796875 -74.765625 70.125 -69.46875 73.34375 -58.875 L 73.484375 -58.875 C 76.222656 -64.257812 79.910156 -68.253906 84.546875 -70.859375 C 89.179688 -73.460938 94.242188 -74.765625 99.734375 -74.765625 C 106.921875 -74.765625 112.519531 -72.46875 116.53125 -67.875 C 120.550781 -63.289062 122.5625 -56.882812 122.5625 -48.65625 L 122.5625 0 L 100.859375 0 L 100.859375 -43.828125 C 100.859375 -47.804688 99.816406 -50.90625 97.734375 -53.125 C 95.660156 -55.34375 92.828125 -56.453125 89.234375 -56.453125 C 84.691406 -56.453125 81.164062 -54.9375 78.65625 -51.90625 C 76.15625 -48.882812 74.90625 -44.867188 74.90625 -39.859375 L 74.90625 0 L 53.34375 0 L 53.34375 -43.828125 C 53.34375 -47.804688 52.300781 -50.90625 50.21875 -53.125 C 48.132812 -55.34375 45.25 -56.453125 41.5625 -56.453125 C 37.113281 -56.453125 33.632812 -54.9375 31.125 -51.90625 C 28.625 -48.882812 27.375 -44.867188 27.375 -39.859375 L 27.375 0 Z M 5.671875 0 "/></g></g></g><g fill="#3d3d3d" fill-opacity="1"><g transform="translate(639.978155, 107.765853)"><g><path d="M 28.09375 2.125 C 20.519531 2.125 14.296875 0.234375 9.421875 -3.546875 C 4.554688 -7.328125 2.125 -12.335938 2.125 -18.578125 C 2.125 -24.828125 4.816406 -30.078125 10.203125 -34.328125 C 15.597656 -38.585938 23.734375 -41.285156 34.609375 -42.421875 L 48.65625 -44.125 C 50.363281 -44.3125 51.734375 -44.851562 52.765625 -45.75 C 53.804688 -46.644531 54.328125 -47.847656 54.328125 -49.359375 C 54.328125 -52.484375 53.097656 -54.988281 50.640625 -56.875 C 48.179688 -58.769531 45.015625 -59.71875 41.140625 -59.71875 C 36.785156 -59.71875 33.191406 -58.367188 30.359375 -55.671875 C 27.523438 -52.984375 25.914062 -49.84375 25.53125 -46.25 L 4.390625 -49.515625 C 4.867188 -54.523438 6.644531 -58.988281 9.71875 -62.90625 C 12.789062 -66.832031 16.972656 -69.90625 22.265625 -72.125 C 27.566406 -74.351562 33.671875 -75.46875 40.578125 -75.46875 C 51.265625 -75.46875 59.773438 -72.84375 66.109375 -67.59375 C 72.441406 -62.34375 75.609375 -55.179688 75.609375 -46.109375 L 75.609375 -18.015625 C 75.609375 -14.515625 76.835938 -12.765625 79.296875 -12.765625 C 81.378906 -12.765625 83.269531 -13.851562 84.96875 -16.03125 L 90.078125 -4.546875 C 87.898438 -2.367188 85.085938 -0.710938 81.640625 0.421875 C 78.191406 1.554688 74.8125 2.125 71.5 2.125 C 67.144531 2.125 63.40625 0.941406 60.28125 -1.421875 C 57.164062 -3.785156 55.375 -6.625 54.90625 -9.9375 L 54.609375 -12.484375 L 54.46875 -12.484375 C 52.101562 -8.128906 48.648438 -4.601562 44.109375 -1.90625 C 39.578125 0.78125 34.238281 2.125 28.09375 2.125 Z M 36.3125 -12.765625 C 41.414062 -12.765625 45.625 -14.347656 48.9375 -17.515625 C 52.25 -20.679688 53.90625 -24.726562 53.90625 -29.65625 L 53.90625 -32.625 L 40 -31.0625 C 33.945312 -30.40625 29.738281 -29.175781 27.375 -27.375 C 25.007812 -25.582031 23.828125 -23.503906 23.828125 -21.140625 C 23.828125 -18.679688 25.007812 -16.671875 27.375 -15.109375 C 29.738281 -13.546875 32.71875 -12.765625 36.3125 -12.765625 Z M 36.3125 -12.765625 "/></g></g></g><g fill="#3d3d3d" fill-opacity="1"><g transform="translate(726.928666, 107.765853)"><g><path d="M 5.671875 0 L 5.671875 -105.265625 L 27.375 -105.265625 L 27.375 0 Z M 5.671875 0 "/></g></g></g></g></g></g></g></g></svg>